<?xml version="1.0" encoding="UTF-8" standalone="no"?>
<!DOCTYPE svg PUBLIC "-//W3C//DTD SVG 1.1//EN" "http://www.w3.org/Graphics/SVG/1.1/DTD/svg11.dtd">
<!-- Generated by graphviz version 2.44.0 (20200518.1210)
 -->
<!-- Title: WorkflowGraph Pages: 1 -->
<svg width="469pt" height="336pt" viewBox="0.00 0.00 469.00 335.60" xmlns="http://www.w3.org/2000/svg" xmlns:xlink="http://www.w3.org/1999/xlink">
<g id="graph0" class="graph" transform="scale(1 1) rotate(0) translate(4 331.6)">
<title>WorkflowGraph</title>
<polygon fill="transparent" stroke="transparent" points="-4,4 -4,-331.6 465,-331.6 465,4 -4,4"/>
<g id="start" class="cluster">
<title>cluster_workflow_start</title>
<g id="a_start"><a xlink:title="Start Workflow">
<polygon fill="transparent" stroke="black" stroke-width="0" points="129,-263.6 129,-319.6 185,-319.6 185,-263.6 129,-263.6"/>
</a>
</g>
</g>
<g id="error-handler" class="cluster">
<title>cluster_error_handler</title>
<polygon fill="transparent" stroke="black" stroke-width="0" points="374,-263.6 374,-319.6 430,-319.6 430,-263.6 374,-263.6"/>
</g>
<g id="scripting-element" class="cluster">
<title>cluster_item1</title>
<g id="a_scripting-element"><a xlink:href="#item1" xlink:title="Generate Workflow Documentation To Resources">
<polygon fill="transparent" stroke="black" stroke-width="0" points="8,-125.8 8,-206.6 305,-206.6 305,-125.8 8,-125.8"/>
<text text-anchor="middle" x="156.5" y="-134" font-family="Calibri" font-size="14.00" fill="#6a7a81">Generate Workflow Documentation To Resources</text>
</a>
</g>
</g>
<g id="end" class="cluster">
<title>cluster_item0</title>
<g id="a_end"><a xlink:href="#item0" xlink:title="end">
<polygon fill="transparent" stroke="black" stroke-width="0" points="108,-8 108,-88.8 207,-88.8 207,-8 108,-8"/>
<text text-anchor="middle" x="157.5" y="-16.2" font-family="Calibri" font-size="14.00" fill="#6a7a81">End Workflow</text>
</a>
</g>
</g>
<g id="exception" class="cluster">
<title>cluster_item2</title>
<g id="a_exception"><a xlink:href="#item2" xlink:title="end">
<polygon fill="transparent" stroke="black" stroke-width="0" points="354,-125.8 354,-206.6 453,-206.6 453,-125.8 354,-125.8"/>
<text text-anchor="middle" x="403.5" y="-134" font-family="Calibri" font-size="14.00" fill="#6a7a81">End Workflow</text>
</a>
</g>
</g>
<!-- start -->
<g id="start" class="node">
<title>start</title>
<g id="start" data-name="icon" transform="translate(137,-311.6)" xmlns="http://www.w3.org/2000/svg">
    <path fill="hsl(93, 80%, 28%)" d="M20 40a2 2 0 0 0 .35-.21C20.52 39.65 36.6 28 36.6 16.6A16.6 16.6 0 0 0 20 0m0 0A16.6 16.6 0 0 0 3.4 16.6c0 11.4 16.08 23 16.25 23.17A2 2 0 0 0 20 40m9.39-22.65-6.91 7.35a1.47 1.47 0 1 1-2.15-2l4.53-4.84H10.79a1.47 1.47 0 1 1 0-2.95H25L20.33 10a1.47 1.47 0 1 1 2.15-2l6.91 7.37a1.47 1.47 0 0 1 0 1.96Z"/>
    <rect x="0" y="0" width="40" height="40" fill="#fff" fill-opacity="0"/>
  </g>
</g>
<!-- item1 -->
<g id="scripting-element" class="node">
<title>item1</title>
<g id="a_scripting-element"><a xlink:href="#item1" xlink:title="Generate Workflow Documentation To Resources">
<g id="scripting-element" data-name="icon" transform="translate(137,-198.6)" xmlns="http://www.w3.org/2000/svg">
    <path fill="hsl(200, 10%, 47%)" d="M22.14 40h-4.28a1.76 1.76 0 0 1-1.69-1.26L15 35a16 16 0 0 1-2.1-.86L9.5 36a1.76 1.76 0 0 1-2.09-.31l-3-3a1.77 1.77 0 0 1-.31-2.09l1.8-3.49A16 16 0 0 1 5 25l-3.7-1.13a1.76 1.76 0 0 1-1.26-1.7v-4.31a1.76 1.76 0 0 1 1.26-1.7L5 15a16 16 0 0 1 .9-2.19L4.08 9.46a1.77 1.77 0 0 1 .31-2.09l3-3A1.76 1.76 0 0 1 9.5 4l3.37 1.8a16 16 0 0 1 2.19-.9l1.11-3.67A1.76 1.76 0 0 1 17.86 0h4.27a1.76 1.76 0 0 1 1.69 1.26l1.12 3.69a16 16 0 0 1 2.17.9L30.5 4a1.76 1.76 0 0 1 2.09.31l3 3a1.77 1.77 0 0 1 .31 2.09l-1.8 3.49A16 16 0 0 1 35 15l3.72 1.13a1.76 1.76 0 0 1 1.26 1.7v4.29a1.76 1.76 0 0 1-1.26 1.7L34.94 25a16 16 0 0 1-.86 2.09l1.85 3.47a1.77 1.77 0 0 1-.31 2.09l-3 3a1.76 1.76 0 0 1-2.12.35L27 34.11a16 16 0 0 1-2 .89l-1.14 3.77A1.76 1.76 0 0 1 22.14 40M18 38h4l1.4-4.63.52-.15a13.7 13.7 0 0 0 2.68-1.11l.48-.26 4.25 2.28 2.78-2.79-2.27-4.26.26-.47a13.8 13.8 0 0 0 1.12-2.7l.15-.52 4.6-1.4V18l-4.59-1.4-.15-.52a13.8 13.8 0 0 0-1.12-2.75l-.26-.47 2.25-4.22-2.8-2.76-4.19 2.24-.48-.27a13.7 13.7 0 0 0-2.77-1.15l-.52-.15L22 2h-4l-1.34 4.54-.52.15a13.7 13.7 0 0 0-2.8 1.15l-.48.26L8.7 5.88 5.92 8.67l2.23 4.18-.26.47a13.8 13.8 0 0 0-1.14 2.8l-.15.52L2.06 18v4l4.56 1.39.15.52a13.7 13.7 0 0 0 1.14 2.75l.26.47-2.25 4.2 2.78 2.79 4.23-2.27.47.26a13.7 13.7 0 0 0 2.71 1.11l.52.15Zm20.1-19.93"/>
    <path fill="hsl(200, 10%, 47%)" d="m27.24 19.13-10.76-6A1 1 0 0 0 15 14v12a1 1 0 0 0 1.48.87l10.76-6a1 1 0 0 0 0-1.74"/>
    <rect x="0" y="0" width="40" height="40" fill="#fff" fill-opacity="0"/>
  </g>
</a>
</g>
</g>
<!-- start&#45;&gt;item1 -->
<g id="edge1" class="edge">
<title>start->item1</title>
<path fill="none" stroke="#0079ad" stroke-width="1.6" d="M157,-263.6C157,-248.88 157,-230.49 157,-214.68"/>
<polygon fill="#0079ad" stroke="#0079ad" stroke-width="1.6" points="159.8,-214.6 157,-206.6 154.2,-214.6 159.8,-214.6"/>
</g>
<!-- errorHandler -->
<g id="error-handler" class="node">
<title>errorHandler</title>
<g id="error-handler" data-name="icon" transform="translate(382,-311.6)" xmlns="http://www.w3.org/2000/svg">
    <path fill="hsl(200, 10%, 47%)" d="M20 39.9a3.32 3.32 0 0 1-2.37-1L1.19 22.38a3.38 3.38 0 0 1 0-4.75L17.63 1.09a3.42 3.42 0 0 1 4.74 0l16.44 16.53a3.38 3.38 0 0 1 0 4.75L22.37 38.91a3.32 3.32 0 0 1-2.37.99m0-37.8a1.33 1.33 0 0 0-1 .4L2.61 19a1.38 1.38 0 0 0 0 1.93L19 37.5a1.37 1.37 0 0 0 1.9 0L37.39 21a1.38 1.38 0 0 0 0-1.93L21 2.5a1.33 1.33 0 0 0-1-.4"/>
    <path fill="hsl(9, 100%, 44%)" d="m21.7 19.92 5.21-5.21a1.2 1.2 0 1 0-1.7-1.7L20 18.22 14.79 13a1.2 1.2 0 0 0-1.7 1.7l5.21 5.21-5.21 5.21a1.2 1.2 0 1 0 1.7 1.7l5.21-5.2 5.21 5.21a1.2 1.2 0 1 0 1.7-1.7Z"/>
    <rect x="0" y="0" width="40" height="40" fill="#fff" fill-opacity="0"/>
  </g>
</g>
<!-- item2 -->
<g id="exception" class="node">
<title>item2</title>
<g id="a_exception"><a xlink:href="#item2" xlink:title="end">
<g id="exception" data-name="icon" transform="translate(382,-198.6)" xmlns="http://www.w3.org/2000/svg">
    <path fill="hsl(9, 100%, 44%)" d="M20 25.23A1.21 1.21 0 0 1 18.79 24V9.66a1.2 1.2 0 1 1 2.4 0V24A1.21 1.21 0 0 1 20 25.23"/>
    <circle cx="20" cy="29.97" r="1.6" fill="hsl(9, 100%, 44%)"/>
    <path fill="hsl(9, 100%, 44%)" d="M20 40a20 20 0 1 1 20-20 20 20 0 0 1-20 20m0-38a18 18 0 1 0 18 18A18 18 0 0 0 20 2"/>
    <rect x="0" y="0" width="40" height="40" fill="#fff" fill-opacity="0"/>
  </g>
</a>
</g>
</g>
<!-- errorHandler&#45;&gt;item2 -->
<g id="edge2" class="edge">
<title>errorHandler->item2</title>
<path fill="none" stroke="#0079ad" stroke-width="1.6" d="M402,-263.6C402,-248.88 402,-230.49 402,-214.68"/>
<polygon fill="#0079ad" stroke="#0079ad" stroke-width="1.6" points="404.8,-214.6 402,-206.6 399.2,-214.6 404.8,-214.6"/>
</g>
<!-- item0 -->
<g id="end" class="node">
<title>item0</title>
<g id="a_end"><a xlink:href="#item0" xlink:title="end">
<g id="end" data-name="icon" transform="translate(137,-80.8)" xmlns="http://www.w3.org/2000/svg">
    <circle cx="20.5" cy="16.53" r="5.31" fill="hsl(200, 10%, 47%)"/>
    <path fill="hsl(200, 10%, 47%)" d="M20 0A16.5 16.5 0 0 0 3.5 16.53a17.3 17.3 0 0 0 2.39 8.52 45.6 45.6 0 0 0 5.3 7.1A69.3 69.3 0 0 0 20 40a69.3 69.3 0 0 0 8.81-7.81 45.6 45.6 0 0 0 5.3-7.1 17.3 17.3 0 0 0 2.39-8.52A16.5 16.5 0 0 0 20 0m.17 27A10.53 10.53 0 1 1 30.7 16.53a10.53 10.53 0 0 1-10.53 10.53Z"/>
    <rect x="0" y="0" width="40" height="40" fill="#fff" fill-opacity="0"/>
  </g>
</a>
</g>
</g>
<!-- item1&#45;&gt;item0 -->
<g id="edge3" class="edge">
<title>item1->item0</title>
<path fill="none" stroke="#0079ad" stroke-width="1.6" d="M157,-125.8C157,-116.02 157,-106 157,-96.88"/>
<polygon fill="#0079ad" stroke="#0079ad" stroke-width="1.6" points="159.8,-96.8 157,-88.8 154.2,-96.8 159.8,-96.8"/>
</g>
</g>
</svg>