<?xml version="1.0" encoding="UTF-8" standalone="no"?>
<!DOCTYPE svg PUBLIC "-//W3C//DTD SVG 1.1//EN" "http://www.w3.org/Graphics/SVG/1.1/DTD/svg11.dtd">
<!-- Generated by graphviz version 2.44.0 (20200518.1210)
 -->
<!-- Title: WorkflowGraph Pages: 1 -->
<svg width="260pt" height="453pt" viewBox="0.00 0.00 260.00 453.40" xmlns="http://www.w3.org/2000/svg" xmlns:xlink="http://www.w3.org/1999/xlink">
<g id="graph0" class="graph" transform="scale(1 1) rotate(0) translate(4 449.4)">
<title>WorkflowGraph</title>
<polygon fill="transparent" stroke="transparent" points="-4,4 -4,-449.4 256,-449.4 256,4 -4,4"/>
<g id="start" class="cluster">
<title>cluster_workflow_start</title>
<g id="a_start"><a xlink:title="Start Workflow">
<polygon fill="transparent" stroke="black" stroke-width="0" points="29,-381.4 29,-437.4 85,-437.4 85,-381.4 29,-381.4"/>
</a>
</g>
</g>
<g id="error-handler" class="cluster">
<title>cluster_error_handler</title>
<polygon fill="transparent" stroke="black" stroke-width="0" points="180,-381.4 180,-437.4 236,-437.4 236,-381.4 180,-381.4"/>
</g>
<g id="task" class="cluster">
<title>cluster_item1</title>
<g id="a_task"><a xlink:href="#item1" xlink:title="Get Workflows">
<polygon fill="transparent" stroke="black" stroke-width="0" points="29,-243.6 29,-324.4 131,-324.4 131,-243.6 29,-243.6"/>
<text text-anchor="middle" x="80" y="-251.8" font-family="Calibri" font-size="14.00" fill="#6a7a81">Get Workflows</text>
</a>
</g>
</g>
<g id="end" class="cluster">
<title>cluster_item0</title>
<g id="a_end"><a xlink:href="#item0" xlink:title="end">
<polygon fill="transparent" stroke="black" stroke-width="0" points="8,-8 8,-88.8 107,-88.8 107,-8 8,-8"/>
<text text-anchor="middle" x="57.5" y="-16.2" font-family="Calibri" font-size="14.00" fill="#6a7a81">End Workflow</text>
</a>
</g>
</g>
<g id="exception" class="cluster">
<title>cluster_item2</title>
<g id="a_exception"><a xlink:href="#item2" xlink:title="end">
<polygon fill="transparent" stroke="black" stroke-width="0" points="143,-243.6 143,-324.4 242,-324.4 242,-243.6 143,-243.6"/>
<text text-anchor="middle" x="192.5" y="-251.8" font-family="Calibri" font-size="14.00" fill="#6a7a81">End Workflow</text>
</a>
</g>
</g>
<g id="foreach" class="cluster">
<title>cluster_item3</title>
<g id="a_foreach"><a xlink:href="#item3" xlink:title="Generate Workflow Documentation">
<polygon fill="transparent" stroke="black" stroke-width="0" points="27,-125.8 27,-206.6 244,-206.6 244,-125.8 27,-125.8"/>
<text text-anchor="middle" x="135.5" y="-134" font-family="Calibri" font-size="14.00" fill="#6a7a81">Generate Workflow Documentation</text>
</a>
</g>
</g>
<!-- start -->
<g id="start" class="node">
<title>start</title>
<g id="start" data-name="icon" transform="translate(37,-429.4)" xmlns="http://www.w3.org/2000/svg">
    <path fill="hsl(93, 80%, 28%)" d="M20 40a2 2 0 0 0 .35-.21C20.52 39.65 36.6 28 36.6 16.6A16.6 16.6 0 0 0 20 0m0 0A16.6 16.6 0 0 0 3.4 16.6c0 11.4 16.08 23 16.25 23.17A2 2 0 0 0 20 40m9.39-22.65-6.91 7.35a1.47 1.47 0 1 1-2.15-2l4.53-4.84H10.79a1.47 1.47 0 1 1 0-2.95H25L20.33 10a1.47 1.47 0 1 1 2.15-2l6.91 7.37a1.47 1.47 0 0 1 0 1.96Z"/>
    <rect x="0" y="0" width="40" height="40" fill="#fff" fill-opacity="0"/>
  </g>
</g>
<!-- item1 -->
<g id="task" class="node">
<title>item1</title>
<g id="a_task"><a xlink:href="#item1" xlink:title="Get Workflows">
<g id="task" data-name="icon" transform="translate(37,-316.4)" xmlns="http://www.w3.org/2000/svg">
    <path fill="hsl(200, 10%, 47%)" d="M38 10V5.52A4.52 4.52 0 0 0 33.48 1H13.53A4.53 4.53 0 0 0 9 5.53V29H2v5.53a4.71 4.71 0 0 0 4.86 4.52h22.61A4.53 4.53 0 0 0 34 34.47V12h-2v22.48A2.52 2.52 0 0 1 29.48 37H10.24a4.5 4.5 0 0 0 .76-2.52V5.73a2.6 2.6 0 0 1 1.88-2.56A2.51 2.51 0 0 1 16 5.61V10ZM4 34.34v-3.4h5v3.52a2.51 2.51 0 0 1-3.09 2.44A2.59 2.59 0 0 1 4 34.34M36 5.51V8H18V5.47A4.37 4.37 0 0 0 17.24 3h16.21A2.52 2.52 0 0 1 36 5.51"/>
    <rect x="0" y="0" width="40" height="40" fill="#fff" fill-opacity="0"/>
  </g>
</a>
</g>
</g>
<!-- start&#45;&gt;item1 -->
<g id="edge1" class="edge">
<title>start->item1</title>
<path fill="none" stroke="#0079ad" stroke-width="1.6" d="M57,-381.4C57,-366.68 57,-348.29 57,-332.48"/>
<polygon fill="#0079ad" stroke="#0079ad" stroke-width="1.6" points="59.8,-332.4 57,-324.4 54.2,-332.4 59.8,-332.4"/>
</g>
<!-- errorHandler -->
<g id="error-handler" class="node">
<title>errorHandler</title>
<g id="error-handler" data-name="icon" transform="translate(188,-429.4)" xmlns="http://www.w3.org/2000/svg">
    <path fill="hsl(200, 10%, 47%)" d="M20 39.9a3.32 3.32 0 0 1-2.37-1L1.19 22.38a3.38 3.38 0 0 1 0-4.75L17.63 1.09a3.42 3.42 0 0 1 4.74 0l16.44 16.53a3.38 3.38 0 0 1 0 4.75L22.37 38.91a3.32 3.32 0 0 1-2.37.99m0-37.8a1.33 1.33 0 0 0-1 .4L2.61 19a1.38 1.38 0 0 0 0 1.93L19 37.5a1.37 1.37 0 0 0 1.9 0L37.39 21a1.38 1.38 0 0 0 0-1.93L21 2.5a1.33 1.33 0 0 0-1-.4"/>
    <path fill="hsl(9, 100%, 44%)" d="m21.7 19.92 5.21-5.21a1.2 1.2 0 1 0-1.7-1.7L20 18.22 14.79 13a1.2 1.2 0 0 0-1.7 1.7l5.21 5.21-5.21 5.21a1.2 1.2 0 1 0 1.7 1.7l5.21-5.2 5.21 5.21a1.2 1.2 0 1 0 1.7-1.7Z"/>
    <rect x="0" y="0" width="40" height="40" fill="#fff" fill-opacity="0"/>
  </g>
</g>
<!-- item2 -->
<g id="exception" class="node">
<title>item2</title>
<g id="a_exception"><a xlink:href="#item2" xlink:title="end">
<g id="exception" data-name="icon" transform="translate(188,-316.4)" xmlns="http://www.w3.org/2000/svg">
    <path fill="hsl(9, 100%, 44%)" d="M20 25.23A1.21 1.21 0 0 1 18.79 24V9.66a1.2 1.2 0 1 1 2.4 0V24A1.21 1.21 0 0 1 20 25.23"/>
    <circle cx="20" cy="29.97" r="1.6" fill="hsl(9, 100%, 44%)"/>
    <path fill="hsl(9, 100%, 44%)" d="M20 40a20 20 0 1 1 20-20 20 20 0 0 1-20 20m0-38a18 18 0 1 0 18 18A18 18 0 0 0 20 2"/>
    <rect x="0" y="0" width="40" height="40" fill="#fff" fill-opacity="0"/>
  </g>
</a>
</g>
</g>
<!-- errorHandler&#45;&gt;item2 -->
<g id="edge2" class="edge">
<title>errorHandler->item2</title>
<path fill="none" stroke="#0079ad" stroke-width="1.6" d="M208,-381.4C208,-366.68 208,-348.29 208,-332.48"/>
<polygon fill="#0079ad" stroke="#0079ad" stroke-width="1.6" points="210.8,-332.4 208,-324.4 205.2,-332.4 210.8,-332.4"/>
</g>
<!-- item0 -->
<g id="end" class="node">
<title>item0</title>
<g id="a_end"><a xlink:href="#item0" xlink:title="end">
<g id="end" data-name="icon" transform="translate(37,-80.8)" xmlns="http://www.w3.org/2000/svg">
    <circle cx="20.5" cy="16.53" r="5.31" fill="hsl(200, 10%, 47%)"/>
    <path fill="hsl(200, 10%, 47%)" d="M20 0A16.5 16.5 0 0 0 3.5 16.53a17.3 17.3 0 0 0 2.39 8.52 45.6 45.6 0 0 0 5.3 7.1A69.3 69.3 0 0 0 20 40a69.3 69.3 0 0 0 8.81-7.81 45.6 45.6 0 0 0 5.3-7.1 17.3 17.3 0 0 0 2.39-8.52A16.5 16.5 0 0 0 20 0m.17 27A10.53 10.53 0 1 1 30.7 16.53a10.53 10.53 0 0 1-10.53 10.53Z"/>
    <rect x="0" y="0" width="40" height="40" fill="#fff" fill-opacity="0"/>
  </g>
</a>
</g>
</g>
<!-- item3 -->
<g id="foreach" class="node">
<title>item3</title>
<g id="a_foreach"><a xlink:href="#item3" xlink:title="Generate Workflow Documentation">
<g id="foreach" data-name="icon" transform="translate(37,-198.6)" xmlns="http://www.w3.org/2000/svg">
    <rect width="9.78" height="4.44" x="6.44" y="25.11" fill="hsl(198, 100%, 70%)" rx="1" ry="1"/>
    <path fill="hsl(198, 100%, 70%)" d="m17.67 13.45-5.36-2.56a1 1 0 0 1 .05-1.69l5.53-2.88a1 1 0 0 1 .85 0l5.36 2.56a1 1 0 0 1-.1 1.66l-5.53 2.88a1 1 0 0 1-.8.03m19 14.82a4.14 4.14 0 0 1-4 5.26h-6.28l1.43-1.43a1.2 1.2 0 1 0-1.7-1.7l-4.32 4.32L26.12 39a1.2 1.2 0 1 0 1.7-1.7l-1.43-1.43h6.27a6.54 6.54 0 0 0 5.86-9.5Zm-12.45-7.44h1.76v-.4a1.35 1.35 0 0 0-1.4-1.51h-5.69v-4.48h-1.78v4.44h-5.9A1.21 1.21 0 0 0 10 20.1v3.23h1.78v-2.66h12.44Z"/>
    <path fill="hsl(198, 99%, 34%)" d="M36.67 28.27a4.14 4.14 0 0 1-4 5.26h-6.28l1.43-1.43a1.2 1.2 0 1 0-1.7-1.7l-4.32 4.32L26.12 39a1.2 1.2 0 1 0 1.7-1.7l-1.43-1.43h6.27a6.54 6.54 0 0 0 5.86-9.5ZM16.85 32H4V4h28v13.33h.16a3.17 3.17 0 0 1 1.84.57V4a2 2 0 0 0-2-2H4a2 2 0 0 0-2 2v28a2 2 0 0 0 2 2h13.83a8.6 8.6 0 0 1-.98-2"/>
    <path fill="hsl(198, 99%, 34%)" d="M33 19.67a1.2 1.2 0 0 0-1.7 1.7l1.43 1.43H25a6.55 6.55 0 0 0-5.3 10.44l1.74-1.74a4.13 4.13 0 0 1-.62-2.14A4.17 4.17 0 0 1 25 25.19h7.76l-1.43 1.43a1.2 1.2 0 1 0 1.7 1.7L37.34 24Z"/>
    <rect x="0" y="0" width="40" height="40" fill="#fff" fill-opacity="0"/>
  </g>
</a>
</g>
</g>
<!-- item1&#45;&gt;item3 -->
<g id="edge3" class="edge">
<title>item1->item3</title>
<path fill="none" stroke="#0079ad" stroke-width="1.6" d="M57,-243.6C57,-233.82 57,-223.8 57,-214.68"/>
<polygon fill="#0079ad" stroke="#0079ad" stroke-width="1.6" points="59.8,-214.6 57,-206.6 54.2,-214.6 59.8,-214.6"/>
</g>
<!-- item3&#45;&gt;item0 -->
<g id="edge4" class="edge">
<title>item3->item0</title>
<path fill="none" stroke="#0079ad" stroke-width="1.6" d="M57,-125.8C57,-116.02 57,-106 57,-96.88"/>
<polygon fill="#0079ad" stroke="#0079ad" stroke-width="1.6" points="59.8,-96.8 57,-88.8 54.2,-96.8 59.8,-96.8"/>
</g>
</g>
</svg>